<svg width="148" height="136" viewBox="0 0 148 136" fill="none" xmlns="http://www.w3.org/2000/svg">
<path fill-rule="evenodd" clip-rule="evenodd" d="M124.762 118.932L104.545 103.265C98.8683 107.311 92.1114 110.064 84.659 110.954C61.0868 113.771 39.6 97.1207 36.7491 73.828C33.8981 50.5352 50.748 29.3029 74.3203 26.4858C97.8925 23.6687 119.379 40.3192 122.23 63.612C123.132 70.9761 122.037 78.116 119.414 84.5283L139.731 100.272C148.043 85.0619 150.232 67.1856 145.645 50.2989C135.693 14.0036 97.8493 -7.4476 61.1186 2.38659C24.3878 12.2208 2.67968 49.6159 12.6314 85.9114C13.6531 89.6368 14.9931 93.2695 16.6376 96.7701L0.375196 128.187C-0.484069 129.849 0.182562 131.885 1.8643 132.734C2.61543 133.113 3.48194 133.205 4.29753 132.991L39.5744 123.651C66.1923 142.104 101.443 139.343 124.762 118.932ZM60.6722 70.9689C61.9266 81.2172 71.3945 88.554 81.7656 87.3145C92.1366 86.0751 99.5616 76.7194 98.3072 66.4711C97.0528 56.2227 87.585 48.886 77.2138 50.1254C66.8427 51.3649 59.4179 60.7205 60.6722 70.9689Z" fill="url(#paint0_linear)"/>
<defs>
<linearGradient id="paint0_linear" x1="145.67" y1="50.3889" x2="-10.1739" y2="92.648" gradientUnits="userSpaceOnUse">
<stop stop-color="#7654FF"/>
<stop offset="1" stop-color="#00BB80"/>
</linearGradient>
</defs>
</svg>
